HIERARCHY
ROOT Hips
{
	OFFSET 0.000000 83.214638 0.000000
	CHANNELS 6 Xposition Yposition Zposition Xrotation Yrotation Zrotation
	JOINT Pelvis
	{
		OFFSET 0.000000 0.000000 0.000000
		CHANNELS 3 Xrotation Yrotation Zrotation
		JOINT LeftUpLeg
		{
			OFFSET 8.479700 -4.795502 -0.379100
			CHANNELS 3 Xrotation Yrotation Zrotation
			JOINT LeftLeg
			{
				OFFSET 0.024144 -32.555107 0.112900
				CHANNELS 3 Xrotation Yrotation Zrotation
				JOINT LeftFoot
				{
					OFFSET -0.024144 -32.638630 -3.012600
					CHANNELS 3 Xrotation Yrotation Zrotation
					JOINT LeftToeBase
					{
						OFFSET 0.970200 -13.225400 11.864200
						CHANNELS 3 Xrotation Yrotation Zrotation
						End Site
						{
							OFFSET 0.000000 12.319262 0.000000
						}
					}
					JOINT LFootTongue
					{
						OFFSET 1.142400 -1.059800 6.665200
						CHANNELS 3 Xrotation Yrotation Zrotation
						End Site
						{
							OFFSET 0.000000 12.319262 0.000000
						}
					}
				}
				JOINT LeftPantLeg
				{
					OFFSET 0.918482 -16.533964 -2.284700
					CHANNELS 3 Xrotation Yrotation Zrotation
					End Site
					{
						OFFSET 0.350399 24.744368 0.000000
					}
				}
			}
		}
		JOINT RightUpLeg
		{
			OFFSET -8.479700 -4.795502 -0.379100
			CHANNELS 3 Xrotation Yrotation Zrotation
			JOINT RightLeg
			{
				OFFSET -0.023144 -32.555092 0.112900
				CHANNELS 3 Xrotation Yrotation Zrotation
				JOINT RightFoot
				{
					OFFSET 0.023144 -32.638641 -3.012700
					CHANNELS 3 Xrotation Yrotation Zrotation
					JOINT RightToeBase
					{
						OFFSET -0.970200 -13.225400 11.864200
						CHANNELS 3 Xrotation Yrotation Zrotation
						End Site
						{
							OFFSET 0.000000 12.319244 0.000000
						}
					}
					JOINT RFootTongue
					{
						OFFSET -1.142200 -1.059800 6.665200
						CHANNELS 3 Xrotation Yrotation Zrotation
						End Site
						{
							OFFSET 0.000000 12.319243 0.000000
						}
					}
				}
				JOINT RightPantLeg
				{
					OFFSET -0.919482 -16.533978 -2.284800
					CHANNELS 3 Xrotation Yrotation Zrotation
					End Site
					{
						OFFSET -0.350400 24.744419 0.000000
					}
				}
			}
		}
	}
	JOINT Spine
	{
		OFFSET 0.000000 7.722000 1.166200
		CHANNELS 3 Xrotation Yrotation Zrotation
		JOINT Spine1
		{
			OFFSET 0.000000 12.024101 0.248800
			CHANNELS 3 Xrotation Yrotation Zrotation
			JOINT Spine2
			{
				OFFSET 0.000000 11.502998 -0.491200
				CHANNELS 3 Xrotation Yrotation Zrotation
				JOINT Neck
				{
					OFFSET 0.000000 18.430702 -3.123100
					CHANNELS 3 Xrotation Yrotation Zrotation
					JOINT Head
					{
						OFFSET 0.000000 9.051102 1.034000
						CHANNELS 3 Xrotation Yrotation Zrotation
						JOINT HairB
						{
							OFFSET 0.208400 24.786102 24.822300
							CHANNELS 3 Xrotation Yrotation Zrotation
							End Site
							{
								OFFSET 0.000000 32.263779 0.000000
							}
						}
						JOINT HairA
						{
							OFFSET -7.081100 24.428299 23.196600
							CHANNELS 3 Xrotation Yrotation Zrotation
							End Site
							{
								OFFSET 0.000000 32.263779 0.000000
							}
						}
						JOINT Hat
						{
							OFFSET 16.728800 15.048294 -15.439601
							CHANNELS 3 Xrotation Yrotation Zrotation
							End Site
							{
								OFFSET 0.000000 32.263779 0.000000
							}
						}
					}
				}
				JOINT LeftShoulder
				{
					OFFSET 6.197800 13.665199 -4.064700
					CHANNELS 3 Xrotation Yrotation Zrotation
					JOINT LeftArm
					{
						OFFSET 7.778100 -0.187103 -1.709300
						CHANNELS 3 Xrotation Yrotation Zrotation
						JOINT LeftForeArm
						{
							OFFSET 22.049376 0.000000 0.000000
							CHANNELS 3 Xrotation Yrotation Zrotation
							JOINT LeftHand
							{
								OFFSET 23.009392 0.000000 0.000000
								CHANNELS 3 Xrotation Yrotation Zrotation
								JOINT LeftHandThumb1
								{
									OFFSET 3.507191 -2.063065 3.133727
									CHANNELS 3 Xrotation Yrotation Zrotation
									JOINT LeftHandThumb2
									{
										OFFSET 3.101337 -1.790558 1.790558
										CHANNELS 3 Xrotation Yrotation Zrotation
										JOINT LeftHandThumb3
										{
											OFFSET 3.058640 -1.765907 1.765906
											CHANNELS 3 Xrotation Yrotation Zrotation
											End Site
											{
												OFFSET -0.415260 3.926476 -0.049563
											}
										}
									}
								}
								JOINT LeftHandIndex1
								{
									OFFSET 11.334419 -0.901459 3.706815
									CHANNELS 3 Xrotation Yrotation Zrotation
									JOINT LeftHandIndex2
									{
										OFFSET 3.283112 0.000000 0.000000
										CHANNELS 3 Xrotation Yrotation Zrotation
										JOINT LeftHandIndex3
										{
											OFFSET 3.323853 0.000000 0.000000
											CHANNELS 3 Xrotation Yrotation Zrotation
											End Site
											{
												OFFSET -1.135597 3.097809 0.402452
											}
										}
									}
								}
								JOINT LeftHandMiddle1
								{
									OFFSET 11.335861 0.000000 0.000000
									CHANNELS 3 Xrotation Yrotation Zrotation
									JOINT LeftHandMiddle2
									{
										OFFSET 3.410492 0.000000 0.000000
										CHANNELS 3 Xrotation Yrotation Zrotation
										JOINT LeftHandMiddle3
										{
											OFFSET 3.312172 0.000000 0.000000
											CHANNELS 3 Xrotation Yrotation Zrotation
											End Site
											{
												OFFSET -1.150200 3.080154 0.400270
											}
										}
									}
								}
								JOINT LeftHandRing1
								{
									OFFSET 11.514786 -0.013176 -3.003090
									CHANNELS 3 Xrotation Yrotation Zrotation
									JOINT LeftHandRing2
									{
										OFFSET 3.053307 0.000000 0.000000
										CHANNELS 3 Xrotation Yrotation Zrotation
										JOINT LeftHandRing3
										{
											OFFSET 3.295807 0.000000 0.000000
											CHANNELS 3 Xrotation Yrotation Zrotation
											End Site
											{
												OFFSET -1.281006 3.013344 0.375733
											}
										}
									}
								}
								JOINT LeftHandPinky1
								{
									OFFSET 10.518692 -0.960396 -5.730441
									CHANNELS 3 Xrotation Yrotation Zrotation
									JOINT LeftHandPinky2
									{
										OFFSET 2.861649 0.000000 0.000000
										CHANNELS 3 Xrotation Yrotation Zrotation
										JOINT LeftHandPinky3
										{
											OFFSET 2.863380 0.000000 0.000000
											CHANNELS 3 Xrotation Yrotation Zrotation
											End Site
											{
												OFFSET -0.843597 2.711159 0.369971
											}
										}
									}
								}
							}
							JOINT LSleeve
							{
								OFFSET 6.676277 -0.344902 -1.011730
								CHANNELS 3 Xrotation Yrotation Zrotation
								End Site
								{
									OFFSET 0.000000 14.885353 0.000000
								}
							}
						}
					}
				}
				JOINT RightShoulder
				{
					OFFSET -6.197800 13.665199 -4.064700
					CHANNELS 3 Xrotation Yrotation Zrotation
					JOINT RightArm
					{
						OFFSET -7.778100 -0.187103 -1.709300
						CHANNELS 3 Xrotation Yrotation Zrotation
						JOINT RightForeArm
						{
							OFFSET -22.049376 0.000000 0.000000
							CHANNELS 3 Xrotation Yrotation Zrotation
							JOINT RightHand
							{
								OFFSET -23.009392 0.000000 0.000000
								CHANNELS 3 Xrotation Yrotation Zrotation
								JOINT RightHandThumb1
								{
									OFFSET -3.507191 -2.063065 3.133727
									CHANNELS 3 Xrotation Yrotation Zrotation
									JOINT RightHandThumb2
									{
										OFFSET -3.101337 -1.790558 1.790558
										CHANNELS 3 Xrotation Yrotation Zrotation
										JOINT RightHandThumb3
										{
											OFFSET -3.058640 -1.765907 1.765906
											CHANNELS 3 Xrotation Yrotation Zrotation
											End Site
											{
												OFFSET 0.415260 3.926476 -0.049563
											}
										}
									}
								}
								JOINT RightHandIndex1
								{
									OFFSET -11.334419 -0.901459 3.706815
									CHANNELS 3 Xrotation Yrotation Zrotation
									JOINT RightHandIndex2
									{
										OFFSET -3.283112 0.000000 0.000000
										CHANNELS 3 Xrotation Yrotation Zrotation
										JOINT RightHandIndex3
										{
											OFFSET -3.323853 0.000000 0.000000
											CHANNELS 3 Xrotation Yrotation Zrotation
											End Site
											{
												OFFSET 1.135597 3.097809 0.402452
											}
										}
									}
								}
								JOINT RightHandMiddle1
								{
									OFFSET -11.335861 0.000000 0.000000
									CHANNELS 3 Xrotation Yrotation Zrotation
									JOINT RightHandMiddle2
									{
										OFFSET -3.410492 0.000000 0.000000
										CHANNELS 3 Xrotation Yrotation Zrotation
										JOINT RightHandMiddle3
										{
											OFFSET -3.312172 0.000000 0.000000
											CHANNELS 3 Xrotation Yrotation Zrotation
											End Site
											{
												OFFSET 1.150200 3.080154 0.400270
											}
										}
									}
								}
								JOINT RightHandRing1
								{
									OFFSET -11.514786 -0.013176 -3.003090
									CHANNELS 3 Xrotation Yrotation Zrotation
									JOINT RightHandRing2
									{
										OFFSET -3.053307 0.000000 0.000000
										CHANNELS 3 Xrotation Yrotation Zrotation
										JOINT RightHandRing3
										{
											OFFSET -3.295807 0.000000 0.000000
											CHANNELS 3 Xrotation Yrotation Zrotation
											End Site
											{
												OFFSET 1.281006 3.013344 0.375733
											}
										}
									}
								}
								JOINT RightHandPinky1
								{
									OFFSET -10.518692 -0.960396 -5.730441
									CHANNELS 3 Xrotation Yrotation Zrotation
									JOINT RightHandPinky2
									{
										OFFSET -2.861649 0.000000 0.000000
										CHANNELS 3 Xrotation Yrotation Zrotation
										JOINT RightHandPinky3
										{
											OFFSET -2.863380 0.000000 0.000000
											CHANNELS 3 Xrotation Yrotation Zrotation
											End Site
											{
												OFFSET 0.843597 2.711159 0.369971
											}
										}
									}
								}
							}
							JOINT RSleeve
							{
								OFFSET -6.676277 -0.344902 -1.011730
								CHANNELS 3 Xrotation Yrotation Zrotation
								End Site
								{
									OFFSET 0.000000 14.885353 0.000000
								}
							}
						}
					}
				}
				JOINT Backpack
				{
					OFFSET 0.000000 -2.471497 36.677502
					CHANNELS 3 Xrotation Yrotation Zrotation
					End Site
					{
						OFFSET 0.000000 20.427315 0.000000
					}
				}
				JOINT Hood
				{
					OFFSET 0.000000 18.754097 -10.431000
					CHANNELS 3 Xrotation Yrotation Zrotation
					JOINT Hood1
					{
						OFFSET 0.000000 -5.011002 -7.685901
						CHANNELS 3 Xrotation Yrotation Zrotation
						End Site
						{
							OFFSET 0.000000 9.175140 0.000000
						}
					}
				}
				JOINT LHoodieString
				{
					OFFSET 5.250500 16.397697 3.089900
					CHANNELS 3 Xrotation Yrotation Zrotation
					JOINT LHoodieString1
					{
						OFFSET 0.257700 -6.364304 3.694600
						CHANNELS 3 Xrotation Yrotation Zrotation
						JOINT LHoodieString2
						{
							OFFSET 0.000000 -9.643799 2.679100
							CHANNELS 3 Xrotation Yrotation Zrotation
							End Site
							{
								OFFSET 0.000000 10.009018 0.000000
							}
						}
					}
				}
				JOINT RHoodieString
				{
					OFFSET -5.250500 16.397697 3.089900
					CHANNELS 3 Xrotation Yrotation Zrotation
					JOINT RHoodieString1
					{
						OFFSET -0.257700 -6.364304 3.694600
						CHANNELS 3 Xrotation Yrotation Zrotation
						JOINT RHoodieString2
						{
							OFFSET 0.000000 -9.643799 2.679100
							CHANNELS 3 Xrotation Yrotation Zrotation
							End Site
							{
								OFFSET 0.000000 10.009018 0.000000
							}
						}
					}
				}
			}
			JOINT LBackpack_Strap
			{
				OFFSET 15.223200 -7.719803 -6.610900
				CHANNELS 3 Xrotation Yrotation Zrotation
				End Site
				{
					OFFSET 0.000000 16.040596 0.000000
				}
			}
			JOINT RBackpack_Strap
			{
				OFFSET -15.223000 -7.719803 -6.610900
				CHANNELS 3 Xrotation Yrotation Zrotation
				End Site
				{
					OFFSET 0.000000 16.040596 0.000000
				}
			}
		}
	}
	JOINT BoyFacialAnim_Joint
	{
		OFFSET 1.000000 -82.208099 -1.550900
		CHANNELS 3 Xrotation Yrotation Zrotation
		End Site
		{
			OFFSET 0.000000 30.012791 0.000000
		}
	}
}
MOTION
Frames: 4
Frame Time: 0.016667
-13.195953 11.898796 -65.741035 -87.112069 26.374764 5.786797 0.000001 0.000001 0.000000 -61.755224 8.690295 35.309418 68.859877 9.915445 -2.395406 18.281534 9.071960 -9.677593 -0.000001 -0.000000 0.000000 -0.000001 -0.000000 0.000001 -0.000000 -0.000001 0.000001 -55.986357 5.547459 -37.205529 109.645771 -2.654884 5.387329 27.171746 3.196621 28.523543 -0.000002 -0.000001 -0.000002 -0.000002 -0.000001 -0.000002 -0.000000 0.000001 -0.000000 54.136151 10.758124 -3.131850 20.535748 3.211058 0.186201 20.612227 2.862299 0.333963 6.354671 0.273875 -2.216759 32.669205 -1.249303 -2.725188 -0.000000 -0.000001 -0.000000 -0.000000 -0.000001 -0.000000 -0.000000 -0.000001 -0.000000 0.690093 -7.698574 -13.129605 -23.121927 -24.042640 -24.824247 0.000079 -63.058799 0.000090 -1.509121 -20.163897 -5.466378 -8.685543 -15.954383 1.210003 21.854529 36.310802 -10.832602 0.000000 -0.000000 0.000000 0.653203 -15.996966 0.940935 1.493573 3.908525 -41.813964 -0.000004 -0.000000 -0.000004 0.176395 0.770538 4.717965 1.760995 4.187615 -45.600928 -0.000001 0.000001 -0.000003 -0.158519 11.618679 1.853040 2.336915 4.681187 -53.039496 -0.000001 0.000001 -0.000004 5.097453 24.546773 -12.359243 2.096988 4.491197 -50.039188 0.000001 -0.000003 0.000003 -0.000000 0.000001 0.000001 0.136774 13.961787 14.788461 -26.720445 -13.516587 33.282112 -0.000009 41.763052 0.000009 -11.101743 -25.897381 44.633920 -8.583328 16.136742 -7.178713 7.869612 -18.273626 9.753285 -0.000000 -0.000002 0.000001 1.587532 7.438686 -9.026619 0.644895 -2.366463 30.483920 0.000004 -0.000002 -0.000000 2.008403 2.097546 -33.232798 0.823275 -2.645924 34.561652 -0.000004 0.000002 0.000002 -0.161303 -5.730963 -3.494306 1.189547 -3.110741 41.846045 0.000000 0.000000 0.000002 -0.079983 -27.024009 -1.328596 1.055489 -2.954438 39.312134 -0.000000 -0.000001 0.000000 -0.000001 -0.000001 -0.000001 0.000000 -0.000001 0.000002 0.000000 -0.000001 0.000002 0.000000 -0.000001 0.000002 0.000000 -0.000001 0.000002 0.000000 -0.000001 0.000002 -0.000000 0.000000 -0.000000 0.000000 -0.000001 0.000002 0.000000 -0.000001 0.000002 -0.000000 0.000000 -0.000000 -0.000001 -0.000001 0.000000 -0.000001 -0.000001 0.000000 0.000001 0.000001 0.000000 
-13.010167 11.730873 -66.887360 -91.510874 25.907240 6.164997 0.000000 -0.000002 -0.000000 -57.847351 8.130526 34.922354 66.795412 9.492033 -0.959352 19.663375 8.820659 -7.517059 0.000001 0.000000 -0.000000 0.000001 0.000000 0.000000 -0.000000 0.000002 0.000000 -51.380467 5.333539 -33.682917 107.671765 -3.230271 3.056903 26.578038 2.440691 28.234935 0.000002 0.000002 -0.000002 0.000002 0.000002 -0.000002 -0.000002 -0.000000 -0.000001 54.023590 11.796931 -2.265434 20.987664 3.430235 0.332315 21.083088 3.010461 0.480114 6.011288 0.280396 -2.502189 29.147549 -1.772882 -3.475363 0.000001 0.000003 0.000002 0.000001 0.000003 0.000002 0.000001 0.000003 0.000002 0.654634 -7.640291 -13.060561 -19.361652 -24.125229 -21.499028 -0.000024 -64.350819 -0.000042 -16.742476 -19.468573 -13.423395 -8.647205 -15.819259 1.255079 21.674212 36.224929 -10.484474 0.000000 0.000000 -0.000001 0.555409 -15.865703 0.644529 1.453099 3.862945 -41.217087 -0.000003 0.000002 0.000000 0.167800 0.758907 4.236380 1.725442 4.152580 -45.111965 0.000002 -0.000000 -0.000003 -0.074902 11.507223 1.341951 2.289174 4.644987 -52.452154 0.000001 -0.000000 -0.000004 5.165698 24.212493 -12.763533 2.067872 4.466716 -49.666339 -0.000001 0.000001 0.000002 0.000001 0.000000 0.000000 0.281185 14.030639 13.544991 -21.025797 -14.046612 33.984364 0.000001 42.419703 -0.000001 -13.856800 -29.911195 39.389564 -8.524675 16.035843 -7.103585 7.804560 -18.123448 9.475612 -0.000000 -0.000001 0.000001 1.572315 7.449073 -8.920438 0.613298 -2.311975 29.709830 0.000001 0.000000 -0.000000 1.979193 2.094970 -32.626926 0.792735 -2.601088 33.894411 -0.000001 -0.000003 -0.000001 -0.150384 -5.701295 -3.349997 1.148419 -3.064234 41.082106 -0.000003 0.000001 0.000001 -0.000269 -26.834553 -1.130546 1.024677 -2.916460 38.710589 -0.000000 0.000000 0.000000 0.000000 0.000000 -0.000001 0.000000 0.000001 0.000001 0.000000 0.000001 0.000001 0.000000 0.000001 0.000001 0.000000 0.000001 0.000001 0.000000 0.000001 0.000003 -0.000001 0.000000 0.000005 0.000000 0.000001 0.000001 0.000000 0.000001 0.000003 -0.000001 0.000000 0.000005 -0.000002 -0.000002 0.000002 -0.000002 -0.000002 0.000002 0.000000 -0.000002 -0.000000 
-12.791507 11.644806 -68.004951 -96.133943 25.401957 6.733042 -0.000000 0.000003 0.000001 -53.497108 7.881649 34.993767 64.635234 8.842900 0.364666 21.134233 7.860802 -6.496633 -0.000001 -0.000001 -0.000001 -0.000001 -0.000001 -0.000000 -0.000000 -0.000001 0.000000 -46.506673 5.361421 -30.374575 106.135314 -4.397434 0.620280 25.629803 1.683113 27.798443 0.000001 -0.000000 0.000000 0.000001 -0.000000 0.000000 -0.000001 -0.000001 -0.000001 53.877393 12.485115 -1.327100 21.302508 3.531561 0.486735 21.413451 3.045614 0.639502 5.772043 0.276188 -2.724581 26.591369 -2.420397 -3.858288 -0.000000 -0.000001 0.000002 -0.000000 -0.000001 0.000002 -0.000000 -0.000001 0.000002 0.618660 -7.705183 -13.035402 -16.051276 -24.091790 -18.542294 0.000019 -64.438928 0.000031 -29.438307 -14.660909 -23.712754 -8.606926 -15.678298 1.302604 21.493753 36.137766 -10.137175 -0.000001 -0.000000 0.000000 0.451712 -15.724111 0.326263 1.413710 3.817618 -40.628981 -0.000000 0.000001 -0.000005 0.157828 0.750889 3.729248 1.690770 4.117842 -44.631096 -0.000001 0.000000 0.000002 0.010180 11.394067 0.806339 2.242461 4.608790 -51.872958 -0.000002 0.000001 -0.000005 5.234675 23.869460 -13.188071 2.039547 4.442556 -49.301695 0.000000 0.000001 0.000002 -0.000001 -0.000001 -0.000000 0.368021 14.232617 12.568259 -15.163276 -12.817752 34.004455 -0.000005 41.556913 0.000001 -18.970123 -29.594455 30.817609 -8.466264 15.928998 -7.031889 7.746170 -17.979947 9.203227 0.000001 0.000001 -0.000001 1.531149 7.435917 -8.676655 0.587239 -2.265765 29.057602 -0.000002 -0.000002 0.000003 1.934924 2.080032 -31.865394 0.767979 -2.563885 33.345134 0.000002 -0.000001 -0.000004 -0.131330 -5.679935 -3.068210 1.114170 -3.024583 40.437350 -0.000002 0.000000 0.000000 0.140605 -26.599528 -0.778670 1.000184 -2.885652 38.226458 -0.000000 -0.000000 -0.000001 -0.000000 -0.000000 0.000001 -0.000000 0.000000 -0.000002 -0.000000 0.000000 -0.000002 -0.000000 0.000000 -0.000002 -0.000000 0.000000 -0.000002 -0.000000 0.000000 0.000000 -0.000001 0.000000 0.000000 -0.000000 0.000000 -0.000002 -0.000000 0.000000 0.000000 -0.000001 0.000000 0.000000 -0.000001 -0.000003 -0.000000 -0.000001 -0.000003 -0.000000 -0.000000 0.000003 0.000001 
-12.579495 11.663841 -69.062538 -100.924733 24.987216 7.410214 -0.000000 -0.000001 -0.000000 -48.950316 7.799369 35.612354 62.642575 8.209037 1.592484 22.087759 6.347347 -6.667679 0.000002 -0.000001 -0.000001 0.000002 -0.000001 -0.000001 0.000000 0.000001 0.000001 -41.387477 5.418332 -27.528089 104.843889 -6.162364 -1.722633 24.696402 1.083307 27.308022 0.000000 -0.000000 -0.000001 0.000000 -0.000000 -0.000001 -0.000001 0.000001 0.000002 53.520614 12.750137 -0.315120 21.392873 3.485086 0.638490 21.512839 2.946443 0.804810 5.701514 0.269787 -2.859060 25.666239 -3.057662 -3.930413 -0.000000 -0.000001 -0.000000 -0.000000 -0.000001 -0.000000 -0.000000 -0.000001 -0.000000 0.583244 -7.873918 -13.009938 -13.224165 -24.020107 -16.352815 0.000007 -63.453728 0.000011 -35.332190 -4.373213 -31.544658 -8.564877 -15.531821 1.352397 21.313276 36.049448 -9.790861 0.000001 -0.000001 0.000001 0.342684 -15.572437 -0.012880 1.375378 3.772577 -40.049634 0.000001 -0.000001 -0.000004 0.146523 0.746363 3.197611 1.656958 4.083404 -44.158269 -0.000001 -0.000001 -0.000000 0.096302 11.279240 0.247315 2.196750 4.572672 -51.301920 0.000000 0.000000 0.000001 5.303562 23.518119 -13.631785 2.011984 4.418815 -48.945125 0.000002 0.000001 -0.000000 -0.000002 -0.000001 -0.000000 0.413006 14.399152 11.899819 -8.989448 -9.774900 33.560179 0.000001 39.122227 -0.000005 -23.648651 -24.014344 23.764219 -8.408932 15.818486 -6.963129 7.693886 -17.841824 8.937308 -0.000000 -0.000002 -0.000001 1.460722 7.396312 -8.275147 0.567199 -2.229316 28.546359 0.000000 0.000000 0.000004 1.874017 2.050745 -30.926830 0.749637 -2.535819 32.932631 0.000002 0.000004 -0.000005 -0.103146 -5.668204 -2.628675 1.087572 -2.993132 39.930717 0.000002 0.000003 0.000003 0.348505 -26.329087 -0.252825 0.982749 -2.863415 37.878955 0.000001 -0.000001 -0.000002 -0.000000 -0.000002 -0.000000 -0.000000 0.000000 -0.000003 -0.000000 0.000000 -0.000003 -0.000000 0.000000 -0.000003 -0.000000 0.000000 -0.000003 -0.000000 0.000000 -0.000001 -0.000001 0.000000 -0.000001 -0.000000 0.000000 -0.000003 -0.000000 0.000000 -0.000001 -0.000001 0.000000 -0.000001 -0.000000 -0.000004 0.000003 -0.000000 -0.000004 0.000003 -0.000000 -0.000001 -0.000000 
